<svg width="24" height="24" viewBox="0 0 24 24" fill="none" xmlns="http://www.w3.org/2000/svg"><rect width="24" height="24" fill="none" rx="0" ry="0"></rect><path fill-rule="evenodd" clip-rule="evenodd" d="M6 7C6 3.69 8.69 1 12 1C15.31 1 18 3.69 18 7V10.042C19.4142 10.2818 20.5 11.5202 20.5 13V20C20.5 21.65 19.15 23 17.5 23H6.5C4.85 23 3.5 21.65 3.5 20V13C3.5 11.5202 4.58579 10.2818 6 10.042V7ZM8 10H16V7C16 4.79 14.21 3 12 3C9.79 3 8 4.79 8 7V10ZM12 20C12.8284 20 13.5 19.3284 13.5 18.5C13.5 17.6716 12.8284 17 12 17C11.1716 17 10.5 17.6716 10.5 18.5C10.5 19.3284 11.1716 20 12 20Z" fill="#ffffff"></path></svg>